<?xml version="1.0" encoding="UTF-8"?>
<svg xmlns="http://www.w3.org/2000/svg" viewBox="0 0 512 512" width="512" height="512"><g id="_2.Trash" data-name="2.Trash"><path d="M333.76,415.7031H129.64a33.0434,33.0434,0,0,1-32.96-33.0518V129.3486a33.0434,33.0434,0,0,1,32.96-33.0518h11.88a7,7,0,0,0,0-14H129.64a47.0591,47.0591,0,0,0-46.96,47.0518v74.187H46.8615a21.0725,21.0725,0,1,0,0,14H82.68V299.877H28.12a7,7,0,0,0-7,7v49.7944a7,7,0,0,0,14,0V313.877H82.68v68.7744a47.0591,47.0591,0,0,0,46.96,47.0518h71.84v47.7021H158.8a7,7,0,0,0,0,14h49.68a7,7,0,0,0,7-7V429.7031H297.6V465.64a21.04,21.04,0,1,0,14,0V429.7031h22.16a7,7,0,1,0,0-14ZM27.04,217.6079a7.0726,7.0726,0,1,1,7.04-7.0723A7.0644,7.0644,0,0,1,27.04,217.6079ZM304.6,492.56a7.0726,7.0726,0,1,1,7.04-7.0723A7.0644,7.0644,0,0,1,304.6,492.56Z"/><path d="M484.96,285.8047a21.06,21.06,0,0,0-19.8213,14.0723H429.32V217.5356h54.56a7,7,0,0,0,7-7V160.7407a7,7,0,0,0-14,0v42.7949H429.32v-74.187a47.0591,47.0591,0,0,0-46.96-47.0518H311.6V34.5947h42.68a7,7,0,1,0,0-14H304.6a7,7,0,0,0-7,7V82.2969H215.48V46.36a21.04,21.04,0,1,0-14,0v35.937H178.24a7,7,0,1,0,0,14H382.36a33.0434,33.0434,0,0,1,32.96,33.0518V382.6514a33.0434,33.0434,0,0,1-32.96,33.0518H370.48a7,7,0,0,0,0,14h11.88a47.0591,47.0591,0,0,0,46.96-47.0518V313.877h35.8188A21.0364,21.0364,0,1,0,484.96,285.8047ZM208.48,19.44a7.0723,7.0723,0,1,1-7.04,7.0723A7.0641,7.0641,0,0,1,208.48,19.44ZM484.96,313.9492A7.0723,7.0723,0,1,1,492,306.877,7.0641,7.0641,0,0,1,484.96,313.9492Z"/><path d="M346.78,187H217.67a7,7,0,1,0,0,14H338.9678l-18.92,172H195.5322l-18.91-172H194.89a7,7,0,0,0,0-14H168.81a7,7,0,0,0-6.958,7.7651l20.45,186A7,7,0,0,0,189.26,387H326.32a7,7,0,0,0,6.958-6.2349l20.46-186A7,7,0,0,0,346.78,187Z"/><path d="M364.8843,216a7,7,0,0,0,14,0V183.25A26.4845,26.4845,0,0,0,352.23,157H297.562V145.3589A20.3818,20.3818,0,0,0,277.2031,125H234.7969a20.3818,20.3818,0,0,0-20.3589,20.3589V157H159.77a26.4845,26.4845,0,0,0-26.6543,26.25V216a7,7,0,0,0,14,0V183.25A12.4711,12.4711,0,0,1,159.77,171H352.23a12.4711,12.4711,0,0,1,12.6543,12.25ZM228.438,157V145.3589A6.366,6.366,0,0,1,234.7969,139h42.4063a6.366,6.366,0,0,1,6.3589,6.3589V157Z"/><path d="M231.4878,342V228a7,7,0,0,0-14,0V342a7,7,0,0,0,14,0Z"/><path d="M263,342V228a7,7,0,0,0-14,0V342a7,7,0,0,0,14,0Z"/><path d="M293.4961,342V228a7,7,0,1,0-14,0V342a7,7,0,0,0,14,0Z"/></g></svg>
