<svg id="Layer_1" enable-background="new 0 0 52 52" viewBox="0 0 52 52" xmlns="http://www.w3.org/2000/svg"><g><path d="m5.1228027 16.7413673 1.2651367-.0200195v2.5410156c0 .1328735.0292969.2584229.0726318.3782959-.5633545 1.8588257-.859375 3.8017578-.8624268 5.7878418-.0003662.0097656-.0056152.0178833-.0056152.02771s.005249.0179443.0056152.02771c.0129666 11.1219978 9.1224079 20.166626 20.1887207 20.166626 1.217041 0 2.4047852-.1290283 3.5574951-.3396606.3900146.6287842 1.0809326 1.052063 1.8736572 1.052063l1.2651367-.0200195v2.5410156c0 .4545898.2719727.8598633.6923828 1.0322266.4269753.174118.9031754.069603 1.2172852-.2495117l3.2456055-3.3037109h9.2387695c1.21875 0 2.2104492-.9916992 2.2104492-2.2104492v-10.320801c0-1.21875-.9916992-2.2099609-2.2104492-2.2099609h-1.8840332c.6401367-1.9887085.9836426-4.0532227.9836426-6.1616211 0-11.1899567-9.1779251-20.199707-20.199707-20.199707-.9360352 0-1.8658447.0846558-2.784668.2115479v-1.2618419c0-1.2187498-.9916992-2.2099607-2.2104492-2.2099607h-15.6591796c-1.21875 0-2.2104492.9912109-2.2104492 2.2099607v10.3208008c0 1.21875.9916992 2.2104501 2.2104492 2.2104501zm32.1286621-6.0101327c-1.0563965.8250732-2.1965332 1.5258179-3.3962402 2.0995483-.9240723-2.2906494-2.1005859-4.1530151-3.4538574-5.4604492 2.4978599.6377649 4.6119728 1.6145916 6.8500976 3.3609009zm-6.0334472 20.8905038c-1.21875 0-2.2099609.9912109-2.2099609 2.2099609v1.1938477c-.814209-.1322021-1.6391602-.2154541-2.4746094-.2463989v-8.572937h8.0172119c-.0350342 1.8519287-.1999512 3.666626-.4925537 5.4155273zm-16.9078369 8.5585938c1.0584717-.8277588 2.2054443-1.5202637 3.4066162-2.0960083.9245605 2.2932129 2.1016846 4.1577759 3.4559326 5.4661865-2.4948368-.6357651-4.6957722-1.6774635-6.8625488-3.3701782zm14.6978759 2.5957031c-.7998047.6959229-1.6276855 1.1324463-2.4746094 1.2915039v-7.7885132c.8369141.0334473 1.6630859.1196289 2.4746094.2626343zm-3.9746093-8.0024414c-2.2128906.081604-4.3808594.5114746-6.4206543 1.2862549-.9403076-2.8406372-1.5161133-6.2329102-1.5874023-9.8536377h8.0080566zm0 1.4978027v7.7950439c-2.3328857-.4460449-4.4353027-2.9292603-5.9035645-6.5888062 1.8764649-.7150878 3.8671875-1.125183 5.9035645-1.2062377zm1.5-11.5651855v-8.569397c2.2141113-.0828857 4.3828125-.513978 6.4228516-1.2896128.942627 2.8414316 1.5202637 6.2354136 1.5922852 9.8590097h-8.0151368zm-3.5410157-16.9093027c.6618652-.4932251 1.3439941-.8217773 2.0410156-.953125v7.7828369c-.6794434-.0259399-1.3596191-.0888062-2.0410156-.1891479zm3.5410157 6.8414917v-7.7848511c2.3319092.4417725 4.4338379 2.9189453 5.9033203 6.5722656-1.8769531.7137451-3.8676758 1.1288452-5.9033203 1.2125855zm-4.0209961 1.2509155c.840332.135438 1.6818848.2152109 2.5209961.2463388v8.5705566h-8.0029297c.0539551-2.8119507.4040527-5.5340576 1.0288086-7.9648438h2.7226563c.7043456.0000001 1.3254394-.3372801 1.7304687-.8520516zm-6.9818116 8.8168955h-8.4049072c.059082-1.5029297.2941895-2.9741821.7033691-4.3924561.1719971-.0533447.3356934-.1338501.4680176-.2686768l3.2456055-3.3037109h4.9758301c-.5976563 2.4559327-.9361572 5.1685181-.9879151 7.9648438zm-8.395874 1.5h8.3908691c.0692139 3.8851318.6636963 7.4606323 1.6643066 10.454895-1.4348145.675415-2.7822266 1.5341797-4.0288086 2.5397339-3.5449218-3.2600098-5.8222655-7.859375-6.0263671-12.9946289zm40.4528809 7.6254883v10.3208008c0 .3916016-.3188477.7104492-.7104492.7104492h-9.2387695c-.3935547 0-.7783203.1606445-1.0546875.4414063l-2.6005859 2.640625v-1.6020508c0-.815918-.6640625-1.4799805-1.4799805-1.4799805h-1.2851563c-.3916016 0-.7099609-.3188477-.7099609-.7104492v-10.3208008c0-.3916016.3183594-.7099609.7099609-.7099609h15.6591797c.3916015-.0000001.7104492.3183593.7104492.7099609zm-12.0106201-2.209961c.2811279-1.7539673.4398193-3.5674438.4736328-5.4155273h8.3924561c-.0732422 1.8546143-.4158936 3.6702881-1.0280762 5.4155273zm8.8615722-6.9155273h-8.3902588c-.0699463-3.8876343-.6656494-7.465332-1.6682129-10.4602671 1.432373-.6746826 2.7770996-1.5325317 4.0217285-2.5360107 3.5491944 3.2588501 5.8303223 7.8591928 6.0367432 12.9962778zm-40.0262451-20.4960947c0-.3916013.3188477-.7099607.7104492-.7099607h15.6591797c.3916016 0 .7104492.3183594.7104492.7099607v10.3208008c0 .3916016-.3188477.7104492-.7104492.7104492h-9.2392578c-.3935547 0-.777832.1606445-1.0541992.4414063l-2.6005859 2.6401377v-1.6015625c0-.8159189-.6640625-1.4799814-1.4804688-1.4799814h-1.284668c-.3916016 0-.7104492-.3188477-.7104492-.7104492z"/><path d="m36.4831543 42.8893166.8980713-2.1396484h3.338623l.8917236 2.1381836c.1591797.3823242.5991211.5620117.980957.4038086.3823242-.159668.5629883-.5986328.4038086-.980957-.075016-.179863-3.0667763-7.3530731-2.9174805-6.9951172-.1723633-.4130859-.5732422-.6801758-1.0209961-.6806641h-.0004882c-.4477539 0-.8481445.2666016-1.0209961.6791992l-2.9360352 6.9951172c-.3843917.9136619.9996339 1.495964 1.3828126.5800781zm2.5727539-6.1293946 1.0383301 2.4897461h-2.083374z"/><path d="m8.8972168 7.9713469h1.2592773c.4013672 1.272522.9794922 2.3826904 1.7434082 3.3139038-.6005859.50177-1.2839355.9251709-2.0725098 1.2554321-.3823242.1601563-.5620117.5996094-.4023438.9814453.160614.3830023.6003075.5614786.9814453.4023438.9660645-.4046021 1.809082-.9346313 2.5456543-1.5692749.7368164.6347046 1.5799561 1.1647339 2.5461426 1.5692749.38165.1593485.8210335-.0198212.9814453-.4023438.159668-.3818359-.0200195-.8212891-.4023438-.9814453-.7886963-.3301392-1.472168-.753479-2.0727539-1.2553711.7641602-.9313354 1.3421631-2.0415039 1.7436523-3.3139648h1.2587891c.4140625 0 .75-.3359375.75-.75s-.3359375-.75-.75-.75h-3.3046875v-.9624024c0-.4140625-.3359375-.75-.75-.75s-.75.3359375-.75.75v.9624023h-3.3051756c-.4140625 0-.75.3359375-.75.75s.3359375.7500001.75.7500001zm4.0550537 2.2290649c-.5045166-.6454468-.9173584-1.3824463-1.2270508-2.2290649h2.4542236c-.3098144.8466186-.7225341 1.583496-1.2271728 2.2290649z"/></g></svg>