<svg height="512" viewBox="0 0 32 32" width="512" xmlns="http://www.w3.org/2000/svg"><g id="Layer_2" data-name="Layer 2"><path d="m16 14.5a2.5 2.5 0 0 0 -2.5 2.5v.17a2.49 2.49 0 0 0 .73 1.77l.27.27v2.79a.5.5 0 0 0 .5.5h2a.5.5 0 0 0 .5-.5v-2.79l.27-.27a2.49 2.49 0 0 0 .73-1.77v-.17a2.5 2.5 0 0 0 -2.5-2.5zm1.5 2.67a1.5 1.5 0 0 1 -.44 1.06l-.41.42a.47.47 0 0 0 -.15.35v2.5h-1v-2.5a.47.47 0 0 0 -.15-.35l-.41-.42a1.5 1.5 0 0 1 -.44-1.06v-.17a1.5 1.5 0 0 1 3 0z"/><path d="m10 13.5h-1a1.47 1.47 0 0 0 -1.5 1.5v1a.5.5 0 0 0 1 0v-1a.47.47 0 0 1 .5-.5h1a.5.5 0 0 0 0-1z"/><path d="m30.22 20.78-3.72-1.86v-5.71a1.71 1.71 0 0 0 -1.71-1.71h-3.29v-4.5a5.5 5.5 0 0 0 -11 0v4.5h-3.29a1.72 1.72 0 0 0 -1.71 1.71v11.58a1.72 1.72 0 0 0 1.71 1.71h14.08a10.86 10.86 0 0 0 3.51 3.82l.14.1a.53.53 0 0 0 .27.08.54.54 0 0 0 .28-.08l.14-.1a10.9 10.9 0 0 0 4.87-9.09.5.5 0 0 0 -.28-.45zm-18.72-13.78a4.5 4.5 0 0 1 9 0v4.5h-9zm-4.29 18.5a.71.71 0 0 1 -.71-.71v-11.58a.71.71 0 0 1 .71-.71h17.58a.71.71 0 0 1 .71.71v5.21h-.06a.51.51 0 0 0 -.45 0l-4.78 2.39a.5.5 0 0 0 -.28.45 11 11 0 0 0 .88 4.27zm18 3.9a9.93 9.93 0 0 1 -4.28-7.87l4.28-2.14 4.29 2.14a9.92 9.92 0 0 1 -4.29 7.87z"/></g></svg>