<svg id="Layer_1" enable-background="new 0 0 512 512" viewBox="0 0 512 512" xmlns="http://www.w3.org/2000/svg" width="300" height="300" version="1.1" xmlns:xlink="http://www.w3.org/1999/xlink" xmlns:svgjs="http://svgjs.dev/svgjs"><g width="100%" height="100%" transform="matrix(1,0,0,1,0,0)"><path d="m498.921 305.57c-4.718-7.879-24.089-31.271-75.219-1.493l-90.155 52.511c-4.52 2.632-9.116 4.491-13.914 5.6 1.778-2.85 3.17-6.075 4.126-9.645 4.609-17.201-5.615-35.159-23.275-40.885-.343-.111-.692-.198-1.047-.263-25.91-4.673-51.481-13.918-72.029-21.347-7.14-2.581-13.884-5.02-19.619-6.879-23.084-7.49-43.948 1.781-61.313 11.837l-67.074 38.834-6.324-11.174c-2.792-4.933-7.351-8.487-12.836-10.008-5.487-1.52-11.224-.82-16.156 1.972l-25.295 14.316c-10.208 5.777-13.813 18.783-8.036 28.992l74.368 131.401c3.91 6.908 11.127 10.792 18.551 10.792 3.546-.001 7.141-.888 10.442-2.756l25.295-14.316c4.932-2.791 8.486-7.35 10.007-12.836s.821-11.224-1.971-16.156l-7.667-13.548 15.289-8.827 115.47 30.94c6.522 1.748 12.923 2.62 19.187 2.62 12.488 0 24.427-3.47 35.662-10.386l163.61-100.743c14.912-9.181 19.643-32.324 9.923-48.553zm-364.922 160.381c-.379 1.367-1.256 2.498-2.469 3.186l-25.294 14.315c-2.489 1.41-5.78.496-7.188-1.992l-74.368-131.401c-.687-1.213-.856-2.635-.477-4.002s1.256-2.499 2.469-3.186l25.295-14.316c.79-.446 1.667-.675 2.562-.675.479 0 .963.065 1.44.198 1.367.379 2.499 1.256 3.185 2.469v.001l74.368 131.401c.687 1.213.856 2.635.477 4.002zm346.608-125.451-163.609 100.743c-12.975 7.987-27.212 9.983-42.318 5.936l-118.671-31.798c-2.049-.549-4.232-.262-6.07.799l-18.041 10.415-44.614-78.83 67.21-38.913c15.035-8.705 31.299-15.999 48.36-10.463 5.482 1.777 11.8 4.062 19.116 6.706 20.964 7.579 47.018 16.998 74.051 21.94 9.422 3.291 14.69 12.393 12.285 21.366-3.162 11.805-12.994 13.276-20.821 12.375-13.277-2.73-25.893-6.33-39.242-10.143-6.336-1.81-12.887-3.681-19.622-5.484-4.272-1.144-8.655 1.39-9.798 5.657s1.39 8.654 5.657 9.798c6.607 1.77 13.095 3.623 19.368 5.414 13.757 3.929 26.751 7.64 40.743 10.5.052.01.103.014.154.023.055.01.108.026.163.035l11.211 1.823c16.766 2.682 31.644.069 45.48-7.987l90.155-52.511c25.951-15.115 45.93-16.653 53.44-4.111 5.178 8.645 2.862 22.124-4.587 26.71zm-421.3 13.434c.722 4.935-2.694 9.521-7.63 10.243-4.935.721-9.521-2.694-10.243-7.63-.721-4.935 2.694-9.521 7.63-10.243 4.935-.722 9.521 2.694 10.243 7.63zm31.865-290.356 21.226 17.06-7.145 26.278c-1.132 4.163.393 8.49 3.882 11.025 1.815 1.318 3.927 1.98 6.043 1.98 1.953 0 3.909-.563 5.639-1.697l22.784-14.915 22.783 14.914c3.609 2.363 8.196 2.252 11.685-.283 3.49-2.536 5.014-6.863 3.882-11.024l-7.145-26.278 21.225-17.059c3.362-2.701 4.674-7.098 3.341-11.2-1.333-4.103-4.978-6.889-9.286-7.099l-27.199-1.326-9.666-25.458c-1.529-4.026-5.305-6.629-9.62-6.629s-8.091 2.603-9.62 6.629l-9.666 25.458-27.2 1.326c-4.308.21-7.952 2.996-9.285 7.099-1.33 4.101-.019 8.498 3.342 11.199zm37.654-3.825c4.089-.197 7.67-2.799 9.122-6.625l5.655-14.893 5.654 14.891c1.453 3.828 5.034 6.43 9.119 6.627l15.912.775-12.423 9.985c-3.185 2.565-4.549 6.771-3.477 10.715l4.179 15.373-13.329-8.726c-1.712-1.121-3.674-1.681-5.636-1.681s-3.924.561-5.635 1.681l-13.329 8.725 4.181-15.377c1.07-3.948-.298-8.154-3.485-10.715l-12.417-9.98zm-37.654 142.65 21.226 17.06-7.145 26.28c-1.13 4.161.394 8.488 3.883 11.022 1.815 1.318 3.927 1.981 6.043 1.981 1.952 0 3.908-.564 5.639-1.697l22.784-14.915 22.786 14.916c3.61 2.362 8.196 2.248 11.684-.287 3.489-2.535 5.011-6.862 3.88-11.022l-7.145-26.278 21.226-17.06c3.361-2.701 4.672-7.098 3.339-11.199-1.333-4.103-4.977-6.889-9.285-7.099l-27.2-1.326-9.666-25.458c-1.528-4.026-5.304-6.628-9.619-6.629 0 0 0 0-.001 0-4.315 0-8.091 2.602-9.62 6.628l-9.666 25.459-27.2 1.326c-4.308.21-7.953 2.996-9.286 7.099-1.329 4.103-.018 8.499 3.343 11.199zm37.654-3.825c4.089-.197 7.67-2.799 9.123-6.625l5.654-14.894 5.654 14.892c1.453 3.828 5.034 6.43 9.119 6.627l15.912.775-12.416 9.979c-3.19 2.563-4.558 6.771-3.484 10.721l4.179 15.372-13.329-8.725c-3.424-2.24-7.848-2.24-11.271 0l-13.329 8.725 4.181-15.377c1.071-3.949-.298-8.156-3.485-10.715l-12.417-9.98zm88.068-11.29 17.572 6.764c2.591 9.379 6.322 18.378 11.131 26.852l-7.648 17.219c-1.343 3.024-.686 6.563 1.655 8.904l24.743 24.743c2.341 2.34 5.882 2.995 8.904 1.654l17.227-7.651c8.474 4.809 17.471 8.539 26.842 11.129l6.766 17.578c1.188 3.088 4.156 5.126 7.466 5.126h34.992c3.31 0 6.277-2.038 7.466-5.126l6.764-17.572c9.375-2.591 18.376-6.322 26.852-11.132l17.219 7.648c3.025 1.343 6.564.686 8.904-1.654l24.743-24.743c2.34-2.341 2.998-5.88 1.655-8.904l-7.65-17.227c4.808-8.473 8.539-17.471 11.129-26.843l17.577-6.766c3.089-1.188 5.126-4.156 5.126-7.466v-34.991c0-3.31-2.038-6.277-5.126-7.466l-17.572-6.764c-2.591-9.376-6.323-18.378-11.132-26.852l7.647-17.22c1.344-3.024.686-6.563-1.654-8.904l-24.743-24.742c-2.34-2.339-5.878-2.996-8.904-1.654l-17.226 7.65c-8.474-4.809-17.471-8.538-26.842-11.129l-6.766-17.578c-1.188-3.088-4.156-5.126-7.466-5.126h-34.991c-3.309 0-6.277 2.038-7.466 5.126l-6.767 17.578c-9.371 2.59-18.37 6.321-26.842 11.129l-17.226-7.65c-3.024-1.344-6.564-.686-8.904 1.654l-24.743 24.743c-2.34 2.341-2.998 5.88-1.655 8.904l7.65 17.224c-4.809 8.474-8.54 17.472-11.13 26.846l-17.575 6.765c-3.089 1.188-5.126 4.156-5.126 7.466v34.992c-.002 3.31 2.035 6.278 5.124 7.466zm10.874-36.965 16.295-6.272c2.462-.947 4.298-3.048 4.909-5.614 2.52-10.59 6.7-20.672 12.423-29.966 1.384-2.247 1.571-5.031.5-7.442l-7.094-15.973 16.975-16.975 15.974 7.094c2.411 1.071 5.195.885 7.441-.499 9.295-5.724 19.377-9.903 29.965-12.424 2.566-.61 4.666-2.446 5.613-4.908l6.274-16.298h24.006l6.273 16.298c.947 2.461 3.047 4.298 5.613 4.908 10.588 2.521 20.67 6.7 29.966 12.424 2.247 1.384 5.03 1.57 7.441.499l15.974-7.094 16.975 16.974-7.091 15.968c-1.071 2.411-.884 5.195.499 7.442 5.725 9.295 9.905 19.379 12.426 29.973.611 2.566 2.447 4.667 4.909 5.614l16.292 6.271v24.005l-16.297 6.273c-2.462.947-4.298 3.048-4.909 5.614-2.52 10.588-6.699 20.67-12.423 29.965-1.383 2.246-1.57 5.03-.5 7.441l7.095 15.975-16.975 16.975-15.967-7.093c-2.412-1.072-5.196-.885-7.443.5-9.296 5.726-19.38 9.905-29.972 12.425-2.566.611-4.667 2.447-5.614 4.909l-6.271 16.293h-24.006l-6.273-16.298c-.947-2.461-3.047-4.298-5.614-4.908-10.587-2.521-20.669-6.7-29.965-12.424-2.247-1.385-5.032-1.571-7.441-.499l-15.975 7.095-16.975-16.975 7.091-15.968c1.071-2.411.884-5.195-.5-7.442-5.723-9.292-9.903-19.376-12.424-29.972-.611-2.566-2.447-4.667-4.909-5.614l-16.292-6.271v-24.006zm121.071 87.488c42.273 0 76.665-34.392 76.665-76.665s-34.392-76.666-76.665-76.666-76.665 34.392-76.665 76.665 34.392 76.666 76.665 76.666zm0-137.331c33.451 0 60.665 27.214 60.665 60.665s-27.214 60.665-60.665 60.665-60.665-27.214-60.665-60.665 27.214-60.665 60.665-60.665zm-9.819 101.487c5.043 0 9.917-1.924 13.811-5.818l41.538-41.538c3.79-3.79 5.877-8.841 5.877-14.223s-2.087-10.434-5.877-14.223c-7.842-7.841-20.602-7.841-28.445 0l-27.552 27.553-6.617-6.616c-3.789-3.79-8.84-5.878-14.223-5.877-5.382 0-10.432 2.087-14.222 5.876-3.79 3.79-5.876 8.841-5.876 14.223s2.087 10.434 5.876 14.222l18.841 18.843c5.03 5.028 11.063 7.578 16.869 7.578zm-25.586-40.644c0-.642.154-1.873 1.19-2.908 1.036-1.036 2.268-1.19 2.909-1.19s1.873.154 2.908 1.19l12.274 12.273c3.124 3.123 8.189 3.123 11.313 0l33.209-33.209c1.577-1.578 4.241-1.576 5.818 0 1.036 1.035 1.19 2.267 1.19 2.908s-.155 1.873-1.19 2.908l-41.538 41.538c-2.918 2.917-6.902-.609-8.053-1.76l-18.841-18.843c-1.035-1.034-1.189-2.265-1.189-2.907z" fill="#000000" fill-opacity="1" data-original-color="#000000ff" stroke="none" stroke-opacity="1"/></g></svg>