<svg id="Layer_1" enable-background="new 0 0 55 55" height="300" viewBox="0 0 55 55" width="300" xmlns="http://www.w3.org/2000/svg" version="1.1" xmlns:xlink="http://www.w3.org/1999/xlink" xmlns:svgjs="http://svgjs.dev/svgjs"><g width="100%" height="100%" transform="matrix(1,0,0,1,0,0)"><g id="Internet_Speed"><g><g><path d="m39.5539627 39.6969376c.5299721 2.6734085-1.4548683 5.389904-3.888298 6.5374985-1.3378754.6316338-2.9992447.8257866-4.4323006 1.2012024-15.7648668 4.1294632-15.4919367 4.1761665-16.3773994 4.0281982-1.7563725-.2938652-2.377141-2.1918907-2.7976999-3.8073997-8.747248-33.602996-7.961928-29.1209031-8.3388-32.5798999-.3267-2.9986 1.6388998-5.5351 3.1226997-5.9387999 3.6342998-.9888 7.1264997 1.1083994 10.7727985.1646996 1.8232002-.4719 3.646801-.9424 5.4694004-1.4165001 1.4403-.3744998 3.024601-1.0216999 4.4227009-.1524997 1.8230534 1.1338687 1.9890804 4.4233594 2.7143002 7.3603997 1.5177612 6.1455889 3.3128681 12.3102274 4.9134998 18.4194984.1057053.4033012.0923004 1.0827026.4144974 1.3901024.2156105.2056122.4556808.148777 1.3299026.808197 1.4996534 1.1309635 2.4247633 2.7243167 2.6746984 3.9853031z" fill="#4224ff" fill-opacity="1" data-original-color="#ffc372ff" stroke="none" stroke-opacity="1"/></g><g><path d="m33.1082649 43.6307373c-15.7648678 4.129467-15.4919376 4.1761665-16.3774014 4.0281982-1.7563715-.2936516-2.3771477-2.1919212-2.797699-3.8073997-8.1669439-31.3736439-8.4493512-31.0357285-8.3387999-32.5798988.1202069-1.6781998 1.4859-2.4898005 2.9697004-2.8934002 5.4597406-1.4854555 11.0117025-2.8970752 16.395298-4.2970996 1.4402084-.3746002 3.0244999-1.0218003 4.4225998-.1526003 1.8230038 1.1339502 1.9889355 4.422771 2.7143002 7.3603997 1.5181389 6.1474113 5.1592293 19.0632935 6.4230003 24.1808014.3666 1.4841995 1.3091011 3.4207001.8880005 4.947998-.6613265 2.3995514-3.9345923 2.5935975-6.2989989 3.2130013z" fill="#280fd0" fill-opacity="1" data-original-color="#5bd9c3ff" stroke="none" stroke-opacity="1"/></g><g><path d="m35.4884644 33.9248352c.1687012.6281013.2664986 1.3012009.0793991 1.9241028-.3735008 1.2437973-1.793293 1.3908005-2.8686981 1.6722984-15.2979317 4.0043983-15.1697903 4.2044792-16.1802006 3.7412987-1.3359842-.6127167-1.4580803-2.6859322-1.9330006-4.4982986-6.0898666-23.2415343-6.0361271-22.3301573-5.7052994-23.2434998.5274-1.4559994 2.9426994-1.6385994 4.2713995-1.9868002 2.2227392-.5822954 8.4313498-2.2090492 10.7634001-2.8200998 1.2546997-.3287001 3.3248005-1.3214998 4.4897003-.2976999.8680268.7631015.2794895.1693706 7.0832997 25.5086984z" fill="#ffffff" fill-opacity="1" data-original-color="#ffffffff" stroke="none" stroke-opacity="1"/></g><g><g><path d="m15.0906839 9.1083422c-.0478516-.1513672-.0292969-.3085938.0498047-.4311523.2430944-.3745861.8269081-.2607117.9511728.1293945.183611.5755491-.7570295 1.0864133-1.0009775.3017578zm.5087891-.0747071h.0058594z" fill="#000000" fill-opacity="1" data-original-color="#000000ff" stroke="none" stroke-opacity="1"/></g><g><path d="m17.670763 8.075139c.9658203-.3354492 1.9550781-.6381836 2.9384766-.9003906.3187237-.0855398.4488964.3981457.1289063.4833984-.9716797.2587891-1.9492188.5581055-2.9033203.8896484-.3144322.1066829-.4754334-.3646058-.1640626-.4726562z" fill="#000000" fill-opacity="1" data-original-color="#000000ff" stroke="none" stroke-opacity="1"/></g></g><g><path d="m46.2862358 47.9838676c1.1189003-.7278023 2.108799-1.6058006 2.8139-2.5956993 1.6655998-2.3387032 2.4941978-5.2930031 2.1327972-8.1543007-.9595985-7.5975018-9.8997993-12.2624016-16.6696968-8.6874008-2.6192017 1.3831005-4.6116009 3.8479996-5.5340004 6.6511002-3.0529651 9.2763138 6.6622849 19.6770134 17.257 12.7863006z" fill="#4224ff" fill-opacity="1" data-original-color="#3a97d4ff" stroke="none" stroke-opacity="1"/></g><g><path d="m28.5545521 35.0414467c.984375-2.9902344 3.0888672-5.5185528 5.7753887-6.9370098.2431641-.128418.5458984-.0361328.6757813.2084961.1289063.2441406.0351563.5463867-.2089844.675293-6.2553406 3.3052921-7.9648552 12.0749607-2.7177734 17.5507793 2.3886719 2.4960938 6.0117188 3.6728516 9.2216797 2.9931641.6591721-.1275826.8453178.8443832.2070313.9785156-8.3743554 1.7604484-15.7563516-6.9595337-12.9531232-15.4692383z" fill="#000000" fill-opacity="1" data-original-color="#000000ff" stroke="none" stroke-opacity="1"/></g><g><path d="m46.6429329 43.6239662c1.2214012-1.7150002 1.8291016-3.8815002 1.564003-5.9796982-.703701-5.5713997-7.2598-8.9924011-12.2243004-6.3707008-4.9152851 2.5954514-6.0078888 9.3510361-2.0870018 13.4477997 1.7971001 1.8778992 4.5606003 2.8364983 7.1040001 2.3003998 2.0554657-.4331055 4.4293175-1.6933632 5.6432991-3.3978005z" fill="#ffffff" fill-opacity="1" data-original-color="#ffffffff" stroke="none" stroke-opacity="1"/></g><g><path d="m35.8914642 34.6474037c-.5087891-.4506836-.9833984-.9501953-1.4091797-1.484375-.0859375-.1079102-.0683594-.2651367.0390625-.3510742.3386459-.2607269.3601036.273716 1.7021484 1.4614258.2468873.2177734-.0835799.5945854-.3320312.3740234z" fill="#000000" fill-opacity="1" data-original-color="#000000ff" stroke="none" stroke-opacity="1"/></g><g><path d="m38.1824799 33.1581459-.2333984-1.7929668c-.0419044-.3259392.45121-.3951721.4960938-.0644531l.2333984 1.7929668c.0420875.3273544-.4527589.3932724-.4960938.0644531z" fill="#000000" fill-opacity="1" data-original-color="#000000ff" stroke="none" stroke-opacity="1"/></g><g><path d="m41.1043549 33.1229897.5644531-1.7597637c.1030502-.3150043.5767174-.1611195.4765625.1533203l-.5644531 1.7587872c-.1014519.3145064-.577446.1632117-.4765625-.1523438z" fill="#000000" fill-opacity="1" data-original-color="#000000ff" stroke="none" stroke-opacity="1"/></g><g><path d="m43.6502533 34.253849 1.2490234-1.1186523c.2439079-.2218361.5811806.1495972.3339844.3720703l-1.2490234 1.1196289c-.2472496.2195015-.5799942-.1516342-.3339844-.3730469z" fill="#000000" fill-opacity="1" data-original-color="#000000ff" stroke="none" stroke-opacity="1"/></g><g><path d="m45.5945892 36.6688881 1.5390625-.4013672c.3215752-.085453.4458694.4001541.1269531.4833984l-1.5390625.4013672c-.3211593.0875893-.4449424-.4003906-.1269531-.4833984z" fill="#000000" fill-opacity="1" data-original-color="#000000ff" stroke="none" stroke-opacity="1"/></g><g><path d="m47.2820892 40.3285561c-1.3948135-.5850792-1.9903526-.1842422-1.9707031-.6459961.0058594-.1347656.1162109-.2397461.25-.2397461.2698593.0351677.9257584.0102272 1.9140625.4248047.3021736.1266822.114048.5906257-.1933594.4609375z" fill="#000000" fill-opacity="1" data-original-color="#000000ff" stroke="none" stroke-opacity="1"/></g><g><g><path d="m18.4765701 26.1418762c-.4500847-.5375938-.3785057-1.3380909.159338-1.78755 1.7290001-1.4464111 4.080595-2.0420513 6.290144-1.5924702.6867867.1386623 1.1302261.8096504.9903107 1.4964371-.1397896.686409-.8092728 1.130476-1.4964352.9903107-1.4377613-.2921162-3.0301056.1108284-4.1565704 1.0522423-.5376892.4498825-1.3390866.3779545-1.7867871-.1589699z" fill="#4224ff" fill-opacity="1" data-original-color="#ff5f6eff" stroke="none" stroke-opacity="1"/></g></g><g><g><path d="m13.5544806 22.4866657c-.4500837-.5375938-.3786221-1.3375893.1583357-1.7875481 3.772934-3.1568565 8.9042683-4.4563332 13.7264366-3.4761791.6882896.1394138 1.1294727.8092747.9904346 1.4960594-.1399136.6866608-.8092728 1.130476-1.4965611.9906864-4.011013-.8154163-8.4530544.3094177-11.5909805 2.9359531-.5375633.4487535-1.3386717.3795034-1.7876653-.1589717z" fill="#4224ff" fill-opacity="1" data-original-color="#ff5f6eff" stroke="none" stroke-opacity="1"/></g></g><g><path d="m24.0252571 30.8374195c1.6117783-.574955.8279552-2.5119457-.4963455-2.9273033-1.3068066-.4101429-2.3120155.9700871-1.5710316 2.1909943.3993092.6578254 1.3014832 1.0096187 2.0673771.736309z" fill="#4224ff" fill-opacity="1" data-original-color="#ff5f6eff" stroke="none" stroke-opacity="1"/></g><g><path d="m36.6450348 40.4877663c-.3783531.6002121-.7128983 1.3583679-.5418015 2.0429001.1930008.7724991 1.0279999 1.2766991 1.8234024 1.2411003.7954979-.0354996 1.5198975-.5227013 2.0053978-1.153801s.7630997-1.3956985.9874001-2.1596985c1.341156-4.5690765 1.961483-5.5767174 1.2745018-5.1052017-1.0363426.7139626-1.8462143 1.6876221-2.8348007 2.4588013-1.0005989.7806015-2.0289994 1.5882988-2.7140999 2.6758995z" fill="#4224ff" fill-opacity="1" data-original-color="#ff5f6eff" stroke="none" stroke-opacity="1"/></g><g><path d="m38.8983345 41.7778664c0 .4655991-.3773003.8428993-.8428001.8428993-.4655991 0-.8428993-.3773003-.8428993-.8428993 0-.4654999.3773003-.8428001.8428993-.8428001.4654998-.0000001.8428001.3773002.8428001.8428001z" fill="#ffffff" fill-opacity="1" data-original-color="#ffffffff" stroke="none" stroke-opacity="1"/></g><g><path d="m17.9656849 45.9892006c-1.2119846 0-2.0572424-.6625137-2.305665-1.4335938-.1005564-.3133621.3736734-.4680252.4765635-.1523438.1689453.5234375.7080078.9355469 1.3740234 1.0498047 1.3054466.2217522 2.6217365-.6063652 4.0058594-.7724609.3251534-.0385361.3889332.4562683.0585938.4960938-1.1988851.1435928-2.3099939.8125-3.6093751.8125z" fill="#000000" fill-opacity="1" data-original-color="#000000ff" stroke="none" stroke-opacity="1"/></g></g></g></g></svg>