<svg id="Layer_1" enable-background="new 0 0 55 55" height="300" viewBox="0 0 55 55" width="300" xmlns="http://www.w3.org/2000/svg" version="1.1" xmlns:xlink="http://www.w3.org/1999/xlink" xmlns:svgjs="http://svgjs.dev/svgjs"><g width="100%" height="100%" transform="matrix(1,0,0,1,0,0)"><g id="Network_Security"><g><g><path d="m17.2474346 29.6360989c-15.6750172-.5610314-7.9532919-.2846604-10.1772461-.3642579-.6483579-.0252457-.6377206-1.0072327.0361328-1l10.1586914.3642578c.2758789.0097656.4916992.2421875.4814453.5175781-.0092773.2705079-.2314453.482422-.4990234.482422z" fill="#000000" fill-opacity="1" data-original-color="#000000ff" stroke="none" stroke-opacity="1"/></g><g><path d="m16.6444073 25.7034817c-3.1320496-.7658672-4.4712524-.3001614-5.4970703-.6455078-.7255859-.2451172-1.3198242-.8603516-1.6308594-1.6884766-.2763672-.7324219-.2949219-1.4951172-.2768555-2.1445313.0190992-.6756477 1.0173664-.6256371 1 .0273438-.015625.5527344-.0024414 1.1943359.2124023 1.7646484.2026367.5390625.5820313.9472656 1.0151367 1.09375.7402687.2493 2.2606411-.1508942 5.4145508.6220703.2685547.0654297.4326172.3359375.3671875.6044922-.0657653.2664929-.3355979.4326039-.6044921.366211z" fill="#000000" fill-opacity="1" data-original-color="#000000ff" stroke="none" stroke-opacity="1"/></g><g><path d="m9.1501036 21.9233932c1.7048111.6148796 3.5733795-.9830341 3.2557898-3.1730518-.3672476-2.5324554-3.2056437-3.4774656-4.7363105-1.970911-1.4771181 1.4538479-.3214579 4.4940338 1.4805207 5.1439628z" fill="#4224ff" fill-opacity="1" data-original-color="#3a97d4ff" stroke="none" stroke-opacity="1"/></g><g><path d="m9.2396221 37.0023079c-.0170898-.6103516-.0009766-1.40625.2768555-2.1445313.3115234-.828125.9057617-1.4433594 1.6308594-1.6875.4458008-.1494141.9067383-.1425781 1.3100586-.1484375 1.4682617-.0029297 2.8466797-.1708984 4.1870117-.4980469.2646484-.0664063.5385742.0986328.6044922.3662109.0654297.2685547-.0986328.5390625-.3671875.6044922-3.1732903.7761078-4.6900759.3805771-5.4150391.6230469-.4331055.1455078-.8120117.5537109-1.0146484 1.0917969-.2148438.5722656-.2280273 1.2138672-.2124023 1.765625.0176782.664711-.9808398.6931611-1.0000001.0273438z" fill="#000000" fill-opacity="1" data-original-color="#000000ff" stroke="none" stroke-opacity="1"/></g><g><path d="m9.1501036 36.3042374c.8569956-.3090973 1.8727398-.0153503 2.5029011.6425858 1.4047155 1.4666252.8477287 4.1396751-1.0390835 4.9831429-.964572.4311981-2.1913271.2593842-2.9443383-.4817657-1.4771181-1.45385-.3214579-4.494034 1.4805207-5.143963z" fill="#4224ff" fill-opacity="1" data-original-color="#3a97d4ff" stroke="none" stroke-opacity="1"/></g><g><path d="m5.6761031 25.6435509c1.7048111-.6148796 3.573379.9830341 3.2557902 3.1730518-.3672485 2.5324554-3.2056437 3.4774647-4.736311 1.970911-1.4771182-1.4538479-.3214578-4.4940319 1.4805208-5.1439628z" fill="#4224ff" fill-opacity="1" data-original-color="#ffc372ff" stroke="none" stroke-opacity="1"/></g><g><path d="m38.0394249 29.6351223c-.6498451 0-.6665344-.9770527-.0170898-1l9.9462891-.3554688c.2529297-.0058594.5073242.2050781.5170898.4824219.0097656.2753906-.2055664.5078125-.4819336.5175781l-9.9462891.3554688c-.0058594 0-.0117187 0-.0180664 0z" fill="#000000" fill-opacity="1" data-original-color="#000000ff" stroke="none" stroke-opacity="1"/></g><g><path d="m38.0277061 25.419302c-.0654297-.2685547.0986328-.5390625.3671875-.6044922 2.7686806-.6782837 4.71521-.4124565 5.3007813-.609375.4208984-.1416016.7895508-.5400391.9873047-1.0634766.2099609-.5576172.2226563-1.1855469.2075195-1.7255859-.0172615-.649065.9807396-.7086811 1-.0273438.0166016.5996094.0009766 1.3808594-.2719727 2.1044922-.3061523.8144531-.890625 1.4189453-1.6035156 1.6591797-.4782257.1621094-1.1679039.1457214-1.375.1455078-1.3486328.0029297-2.6972656.1669922-4.0078125.4873047-.2685356.0663052-.5386238-.0993156-.6044922-.3662109z" fill="#000000" fill-opacity="1" data-original-color="#000000ff" stroke="none" stroke-opacity="1"/></g><g><path d="m45.9674835 22.0736008c-1.6691971.6020355-3.4987297-.9624977-3.1877747-3.1067657.3595734-2.4795513 3.1386757-3.4048214 4.6373672-1.929739 1.4462625 1.4234771.3147432 4.4001521-1.4495925 5.0365047z" fill="#4224ff" fill-opacity="1" data-original-color="#3a97d4ff" stroke="none" stroke-opacity="1"/></g><g><path d="m44.8904991 36.8109016c.0151367-.5400391.0024414-1.1669922-.2075195-1.7255859-.1972656-.5234375-.5664063-.9199219-.9873047-1.0625-.277832-.09375-.597168-.0859375-.9560547-.09375h-.1015625c-1.4267578-.0019531-2.8544922-.1757813-4.2431641-.515625-.2685547-.0654297-.4326172-.3359375-.3671875-.6044922.065918-.2675781.3408203-.4335938.6044922-.3662109 1.3120117.3203125 2.6601563.484375 4.0073242.4863281.4946289 0 .9418945 0 1.3754883.1464844.7128906.2402344 1.2973633.8447266 1.6035156 1.6582031.2709961.7207031.2895508 1.4677734.2719727 2.1044922-.0191688.6661949-1.0176811.6375084-1-.0273438z" fill="#000000" fill-opacity="1" data-original-color="#000000ff" stroke="none" stroke-opacity="1"/></g><g><path d="m45.9674835 36.1540298c-1.6691971-.6020355-3.4987297.9624977-3.1877747 3.1067657.3595734 2.4795532 3.1386757 3.4048195 4.6373672 1.9297371 1.4462625-1.4234771.3147432-4.4001502-1.4495925-5.0365028z" fill="#4224ff" fill-opacity="1" data-original-color="#3a97d4ff" stroke="none" stroke-opacity="1"/></g><g><path d="m49.3689117 25.7160454c-.8390923-.302639-1.8336182-.0150299-2.4506149.6291618-.6169968.6441898-.8651772 1.5948353-.7371597 2.4776039.1484642 1.0237942.8101044 1.97925 1.7545357 2.4014416.9444237.4221897 2.1455498.2539635 2.8828316-.4717026 1.4462623-1.4234771.314743-4.4001522-1.4495927-5.0365047z" fill="#4224ff" fill-opacity="1" data-original-color="#ffc372ff" stroke="none" stroke-opacity="1"/></g><g><path d="m28.2666111 13.157793c3.581953 1.1966238 7.2250233 2.2181778 10.924818 2.9713669.6308861.1284237 1.0960579.6628475 1.1236992 1.3060436.3378601 7.8625641.4095078 16.3010597-4.2988625 22.9543343-1.0422707 1.4729042-2.2935448 2.7889557-3.659481 3.9647026-1.3745003 1.1830902-2.8639641 2.2258797-4.4051857 3.1791916-.166647.1030846-.2697906.1530418-.4607105.0534859-4.6455479-2.4214668-9.1398506-5.738369-11.2536488-10.5317764-2.0245962-4.5910721-2.3539371-14.2031879-2.2881489-19.19594.0084219-.6370773.4540157-1.18993 1.0728798-1.3411732 2.7495785-.6717005 5.1538525-1.211524 8.0023994-1.9210911 1.3157616-.3278236 2.9091015-.8004122 4.2098885-1.379612.3271771-.1456995.6926499-.1730547 1.0323525-.0595322z" fill="#4224ff" fill-opacity="1" data-original-color="#ff5f6eff" stroke="none" stroke-opacity="1"/></g><g><path d="m40.4534874 22.5462551c-.2739258 0-.4975586-.2207031-.5-.4951172-.0151367-1.5644531-.0751953-3.1328125-.1376953-4.5947266-.0175781-.4101563-.3154297-.7539063-.7241211-.8369141-1.8012695-.3671875-3.6674805-.8134775-5.546875-1.3291025-.2661133-.0732422-.4228516-.3486328-.3500977-.6142578.0732422-.2675781.3481445-.4228516.6147461-.3505859 1.8579102.5097656 3.7021484.9521484 5.4814453 1.3134766.859375.1748047 1.4863281.9042978 1.5239258 1.774415.0629883 1.4707031.1235352 3.0488281.1386719 4.6279297.0024414.2763672-.2192383.5019531-.4951172.5048828-.0019531 0-.003418 0-.0048828 0z" fill="#000000" fill-opacity="1" data-original-color="#000000ff" stroke="none" stroke-opacity="1"/></g><g><g><path d="m28.276125 30.925333c.7197876 3.4653606.7127724 3.2935085.6717949 3.4162731-.0655556.1474609-.2867184.1474609-.4505806.1229095-.5161324-.0737572-2.5888691-.1556625-3.1050014-.1229095-.1720123.0164032-.385025 0-.4341793-.1556587-.0389767-.1167717-.045763-.0258713.9257603-3.3343697-.9891586-.3704624-1.905508-1.4944305-2.0071812-2.7608795-.0901051-1.1387749.5734882-2.7362785 1.5893536-3.3425179 1.3189869-.7947025 3.1377563-.4260273 4.1618233.679945 1.6745737 1.8238355.9016588 4.7727452-1.3517896 5.4972077z" fill="#ffffff" fill-opacity="1" data-original-color="#ffffffff" stroke="none" stroke-opacity="1"/></g></g><g><path d="m25.1527081 42.9163704c-2.7602539-1.6875-5.0708008-4.0625-6.6816406-6.8662109-.0688477-.1201172-.0273438-.2734375.0922852-.3417969.1186523-.0693359.2714844-.0283203.3413086.0917969 1.5693359 2.7324219 3.8198242 5.0458984 6.5087891 6.6904297.2839144.171997.0182207.6005554-.2607423.4257812z" fill="#000000" fill-opacity="1" data-original-color="#000000ff" stroke="none" stroke-opacity="1"/></g><g><path d="m30.1580791 11.8714495c-.2182617-.1689453-.2583008-.4833984-.0893555-.7011719l1.7675781-2.2861328c.1684551-.2197266.4829082-.2587891.70117-.0898438.21875.1689453.2587891.4824219.0898438.7011719l-1.7675762 2.2861328c-.1674767.2172213-.480896.2598438-.7016602.0898438z" fill="#000000" fill-opacity="1" data-original-color="#000000ff" stroke="none" stroke-opacity="1"/></g><g><path d="m27.803587 11.0696917c-.2724609 0-.4951172-.21875-.5-.4912109l-.0454102-2.7099609c-.0043945-.2763672.215332-.5039063.4916992-.5087891.3085938-.0146484.5029297.2158203.5083008.4912109l.0454102 2.7099609c.0043945.2763672-.215332.5039063-.4916992.5087891-.0029297 0-.0058594 0-.0083008 0z" fill="#000000" fill-opacity="1" data-original-color="#000000ff" stroke="none" stroke-opacity="1"/></g><g><path d="m25.147337 11.6927385-1.980957-1.6660156c-.2119141-.1777344-.2392578-.4931641-.0615234-.7041016.1772461-.2109375.4941406-.2402344.7041016-.0615234l1.9819336 1.6660156c.2114258.1777344.2387695.4931641.0610352.7050781-.1786863.2112551-.494652.2376824-.70459.0605469z" fill="#000000" fill-opacity="1" data-original-color="#000000ff" stroke="none" stroke-opacity="1"/></g></g></g></g></svg>