<svg id="Layer_1" enable-background="new 0 0 55 55" viewBox="0 0 55 55" xmlns="http://www.w3.org/2000/svg" width="300" height="300" version="1.1" xmlns:xlink="http://www.w3.org/1999/xlink" xmlns:svgjs="http://svgjs.dev/svgjs"><g width="100%" height="100%" transform="matrix(1,0,0,1,0,0)"><g id="_x32_1"><g><g><path d="m40.26831 33.35847c0 9.82553-7.95154 17.90395-17.89439 17.90395-9.8515 0-17.90401-7.98619-17.90401-17.90395 0-8.0392 5.3285-14.87078 12.592-17.09189.66878-.21021 1.36625-.38218 2.06367-.51595 2.98085-.56385 6.24959-.34941 9.39148.79299h.0095c6.88689 2.5141 11.74175 9.12443 11.74175 16.81485z" fill="#f2f8fd" fill-opacity="1" data-original-color="#f2f8fdff" stroke="none" stroke-opacity="1"/></g><g><path d="m34.69839 46.34216c-3.23968 3.07053-7.56754 4.92027-12.32446 4.92027-9.8515 0-17.90401-7.98619-17.90401-17.90395 0-8.0392 5.3285-14.87078 12.592-17.09189.66878-.21021 1.36625-.38218 2.06367-.51595-3.46806 3.90756-5.57949 9.02842-5.49348 14.2353.09552 5.87566 3.1432 11.72262 8.14942 14.80851 3.81204 2.35026 8.69406 2.92346 12.91686 1.54771z" fill="#d0dcee" fill-opacity="1" data-original-color="#d0dceeff" stroke="none" stroke-opacity="1"/></g><g><path d="m40.25875 32.90941c-1.26112-.45856-2.01585-1.83433-3.20053-2.51267-.74523-.42994-1.62417-.55414-2.48404-.66878-.48726-.06683-1.02227-.1242-1.42352.16246-.52545.37256-.55414 1.13691-.74517 1.75788-.19109.62103-.97451 1.91077-1.80569 1.48084-.44906-.23885-.2771-.65922-.37262-1.04134-.1242-.47769-.46813-.83118-.4395-1.35663.04782-.69747.66878-1.18473 1.07003-1.75794.58283-.81206.7261-1.85345.85987-2.84704.32729-2.49972-.5957-2.4016-1.17511-3.14326-.54458-.71654-.29617-1.71969-.26754-2.61775.04776-1.45215-.64009-2.89479-1.74837-3.82155 6.74906 2.45416 11.54952 8.88382 11.73219 16.36578z" fill="#4224ff" fill-opacity="1" data-original-color="#f72f43ff" stroke="none" stroke-opacity="1"/></g><g><path d="m22.18283 46.96318c-1.00315.15284-2.00635-.17196-3.00949-.32486-1.00315-.15284-2.15919-.06689-2.82797.68791-.63113.71002-.66699 1.7901-1.82476 2.12093-5.95205-2.90435-10.0507-9.01886-10.0507-16.08869 0-6.75459 3.74516-12.63981 9.27683-15.6875.46813.47769.89807.97451 1.23243 1.54772.46819.80255.71654 1.7675.48726 2.66557-.32733 1.20011-1.28101 1.96415-1.62417 3.07632-.2866.90763-.11464 1.90121-.39168 2.79928-.2866.91719-1.00315 1.62417-1.56685 2.4076-.84075 1.14647-1.37576 2.51267-1.54772 3.92663-.05732.44906-.06688.92675.14333 1.328.37256.71654 1.3662.90763 2.12093.63053 2.21661-.81359 4.88908-6.55629 7.73867-10.24172 1.16184-1.52093 2.60522-1.56204 2.81835.39168.13377 1.1656.00956 2.35984-.36305 3.47762-.34393 1.0414-.86938 2.30252-.15284 3.14326.21742.25687.46771.3963.64966.65922.34393.51589.14333 1.20374-.13377 1.74832-.63053 1.2038-1.60505 2.20694-2.21645 3.4203-.61146 1.2038-.78342 2.82797.15284 3.81199.44901.4777 1.07959.7261 1.64324 1.0414.57327.31524 1.12741.77386 1.25156 1.41396.20065 1.00313-.8025 1.88207-1.80565 2.04453z" fill="#260fb0" fill-opacity="1" data-original-color="#00c6c5ff" stroke="none" stroke-opacity="1"/></g><g><path d="m39.76193 37.58127c-1.6146 6.69728-6.99344 11.93278-13.78623 13.3181 1.44258-1.11792 2.53993-2.82735 2.22607-4.56678-.1624-.9267-.7261-1.77701-.68791-2.72283.05615-1.1782 1.0521-2.40697.46819-3.44893-.39255-.67296-1.40041-.97561-1.51909-1.78657-.05732-.39174.25797-.85031.64966-.80255.26754.0382.44906.27704.6019.49682.73567 1.07959 1.51909 2.4171 2.82797 2.50311.8885.05732 1.71969-.55414 2.18782-1.31844.58038-.94756.64299-1.75201 1.3662-5.5126.09557-.53502.33442-1.19423.87894-1.2133.6019-.02869.85987.75473.879 1.35663.05965 2.02607.91437 1.4579 1.44265 1.68149.41081.17196.50632.70698.73561 1.0891.36302.58282 1.0318.78342 1.72922.92675z" fill="#25129c" fill-opacity="1" data-original-color="#ffd880ff" stroke="none" stroke-opacity="1"/></g><g><path d="m25.09676 19.1423c-.36305.10508-.79299.11464-1.0509.39168-.58283.64009.31524 1.95853-.41087 2.43623-.42988.28666-.99358-.08595-1.51903-.14327-.64009-.06688-1.24199.39168-1.61461.9267-.36305.54458-.58277 1.17517-.93626 1.71968-.30573.48726-.92676.93632-1.42358.64015-.31524-.17196-.42988-.58283-.37256-.93632s.23885-.66872.42037-.97445c.70698-1.22292 1.32794-2.57956 1.20374-3.98401-.11464-1.40439-1.27062-2.86616-2.67507-2.83747l.34393-.11464c.89807-.2866 1.82482-.49682 2.78021-.63059 2.18506-.33032 4.72373-.20039 6.73547.31529.06688.35349-.49322 2.90732-1.48084 3.19102z" fill="#3e2cad" fill-opacity="1" data-original-color="#28b6f4ff" stroke="none" stroke-opacity="1"/></g><g><path d="m39.76193 37.58127c-1.6146 6.69728-6.99344 11.93278-13.78623 13.3181 1.44258-1.11792 2.53993-2.82735 2.22607-4.56678-.1624-.9267-.7261-1.77701-.68791-2.72283.00956-.20065.04782-.39174.09557-.59233.45144 1.49554 2.27488 2.12799 2.53174 3.56358.09557.48726.00956 1.07003.38218 1.41396 1.01795.90734 3.55659-1.61377 2.78015-4.42339-.09552-.36305-.1624-.89807.20065-.99364.31529-.08595.54458.2771.78342.48726.32486.27704.79299.3153 1.19423.17196 1.29609-.47409 2.44031-2.91245 1.43308-5.01578-.40351-.85352-1.48875-2.04834-1.00315-3.18146.01907-.05732.04776-.10508.08595-.15284.26683.80031.90929.51324 1.29937.67834.41081.17196.50632.70698.73561 1.0891.36307.58282 1.03185.78342 1.72927.92675z" fill="#321cc2" fill-opacity="1" data-original-color="#ffca28ff" stroke="none" stroke-opacity="1"/></g><g><path d="m22.18283 46.96318c-1.00315.15284-2.00635-.17196-3.00949-.32486-1.00315-.15284-2.15919-.06689-2.82797.68791-.63113.71002-.66699 1.7901-1.82476 2.12093-5.95205-2.90435-10.0507-9.01886-10.0507-16.08869 0-6.75459 3.74516-12.63981 9.27683-15.6875.46813.47769.89807.97451 1.23243 1.54772.59138 1.01372.80072 2.18164.25797 3.26747-.6019-.86943-1.61461-1.45221-2.67507-1.42352-1.6433.04776-3.09545 1.59548-3.04769 3.23872.03819 1.328.91719 2.57956.68785 3.898-.25791 1.56685-1.91077 2.43623-2.96168 3.64002-1.94897 2.23563-1.49997 6.1145.89807 7.85332.69741.50632 1.51903.85025 2.06361 1.50947 1.0032 1.21336.76436 3.11457 1.75794 4.32793 1.00314 1.23243 3.18146 1.18467 4.13684-.08601.38212-.50632.63053-1.2038 1.24199-1.39483 1.03184-.32486 2.00629 1.11779 3.03812.80249.65922-.21016.90763-1.07959.68785-1.73881-.44182-1.32557-2.11656-1.97979-2.2547-3.42025-.07645-.80255.42994-1.54778 1.00315-2.11143.57327-.56371 1.25155-1.0414 1.68149-1.71968.53501-.83118.66878-1.90121 1.37576-2.57956.03825-.03819.08601-.07645.12421-.11464 1.54588 1.28797-1.04674 3.48485-2.05405 5.48391-.61146 1.2038-.78342 2.82797.15284 3.81199.44901.4777 1.07959.7261 1.64324 1.0414.57327.31524 1.12741.77386 1.25156 1.41396.20066 1.00314-.80249 1.88208-1.80564 2.04454z" fill="#11007a" fill-opacity="1" data-original-color="#018e9aff" stroke="none" stroke-opacity="1"/></g><g><path d="m40.25875 32.90941c-1.26112-.45856-2.01585-1.83433-3.20053-2.51267-.74523-.42994-1.62417-.55414-2.48404-.66878-.48726-.06683-1.02227-.1242-1.42352.16246-.52545.37256-.55414 1.13691-.74517 1.75788-.19109.62103-.97451 1.91077-1.80569 1.48084-.44906-.23885-.2771-.65922-.37262-1.04134-.1242-.47769-.46813-.83118-.4395-1.35663.04782-.69747.66878-1.18473 1.07003-1.75794.58283-.81206.7261-1.85345.85987-2.84704.32729-2.49972-.5957-2.4016-1.17511-3.14326-.54458-.71654-.29617-1.71969-.26754-2.61775.04776-1.45215-.64009-2.89479-1.74837-3.82155 1.15604.42037 2.25476.95539 3.27703 1.59548-.65665.16431-1.16119 1.11578-.70704 2.22607.79114 1.90453 3.71529 2.75559 1.77707 6.33422-.29617.52545-.63059 1.21336-.24841 1.68149.22928.28661.64009.34393 1.00314.29617s.71654-.18153 1.07959-.20065c1.52859-.08595 2.54131 1.67193 4.0222 2.06367.42988.11464.87894.10508 1.32795.07645.11465.74516.18153 1.50945.20066 2.29288z" fill="#4224ff" fill-opacity="1" data-original-color="#e2212eff" stroke="none" stroke-opacity="1"/></g><g><path d="m25.09676 19.1423c-.36305.10508-.79299.11464-1.0509.39168-.58283.64009.31524 1.95853-.41087 2.43623-.42988.28666-.99358-.08595-1.51903-.14327-.64009-.06688-1.24199.39168-1.61461.9267-.36305.54458-.58277 1.17517-.93626 1.71968-.30573.48726-.92676.93632-1.42358.64015-.31524-.17196-.42988-.58283-.37256-.93632s.23885-.66872.42037-.97445c.70698-1.22292 1.32794-2.57956 1.20374-3.98401-.11464-1.40439-1.27062-2.86616-2.67507-2.83747l.34393-.11464c.89807-.2866 1.82482-.49682 2.78021-.63059-.18153.24841-.29617.54458-.33436.85031-.09558.90763.56364 1.84389 1.45215 2.06367.41081.09552.91719.09552 1.14648.44901.40125.64966-.65922 1.42352-.45857 2.15918.42037.14333.8885-.10508 1.12735-.47769.22928-.37261.26748-.83118.23885-1.27068-.01912-.37261.00956-.87894.38212-.96495.16246-.02863.32486.03825.48726.08601.71654.19109 1.52866-.35349 1.6433-1.07959.08595-.58277-.20065-1.17511-.09557-1.72925.39174.05732.77386.13377 1.14648.22928.32295 1.70695-.49324 2.90731-1.48086 3.19101z" fill="#2e1d99" fill-opacity="1" data-original-color="#095da4ff" stroke="none" stroke-opacity="1"/></g></g><g><path d="m51.04766 10.54542v7.53391c0 1.33581-1.08208 2.41781-2.41789 2.41781h-10.43268c-1.10867 1.01523-2.49796 1.76328-3.95395 2.13734 0 .01337 0 .01337-.01337.01337-.06678.06677-.12026.12018-.12026.12018h-.42739c.24044-.74805.48087-1.50947.60105-2.27089h-.85486c-1.33581 0-2.41781-1.082-2.41781-2.41781v-7.53391c0-1.33581 1.082-2.40452 2.41781-2.40452h15.20144c1.33582 0 2.41791 1.06871 2.41791 2.40452z" fill="#000000" fill-opacity="1" data-original-color="#f58210ff" stroke="none" stroke-opacity="1"/></g><g><path d="m51.47504 10.54542v7.53391c0 1.33581-1.082 2.41781-2.41781 2.41781h-10.43267c-1.25566 1.14886-2.84528 1.95031-4.51505 2.27089.24052-.74805.48096-1.50947.60113-2.27089h-.85494c-1.33581 0-2.41781-1.082-2.41781-2.41781v-7.53391c0-1.33581 1.082-2.40452 2.41781-2.40452h15.20152c1.33582 0 2.41782 1.06871 2.41782 2.40452z" fill="#321cc2" fill-opacity="1" data-original-color="#ffca28ff" stroke="none" stroke-opacity="1"/></g><g><path d="m51.47504 17.11758v.96174c0 1.33581-1.082 2.41781-2.41781 2.41781h-10.43267c-1.25566 1.14886-2.84528 1.95031-4.51505 2.27089.24052-.74805.48096-1.50947.60113-2.27089h-.85494c-1.33581 0-2.41781-1.082-2.41781-2.41781v-7.53391c0-1.33581 1.082-2.40452 2.41781-2.40452h1.12212c-1.2957 2.03046-1.4427 4.75548-.28055 6.86608 1.30915 2.37778 4.03417 3.75362 6.73253 4.00743 2.71165.26718 5.42339-.45413 7.96138-1.41596.51789-.19561 1.4832-.58107 2.08386-.48086z" fill="#4224ff" fill-opacity="1" data-original-color="#ff9f1cff" stroke="none" stroke-opacity="1"/></g><g><path d="m3.84319 5.93352v6.48956c0 1.15064.93209 2.08266 2.08273 2.08266h8.98651c.95498.8745 2.15169 1.51886 3.40585 1.84107 0 .01152 0 .01152.01152.01152.05752.05752.10359.10352.10359.10352h.36814c-.20711-.64436-.41421-1.30023-.51773-1.95611h.73636c1.15064 0 2.08266-.93202 2.08266-2.08266v-6.48956c0-1.15064-.93202-2.07121-2.08266-2.07121h-13.09424c-1.15065 0-2.08273.92057-2.08273 2.07121z" fill="#4224ff" fill-opacity="1" data-original-color="#f72f43ff" stroke="none" stroke-opacity="1"/></g><g><path d="m3.47504 5.93352v6.48956c0 1.15064.93202 2.08266 2.08266 2.08266h8.98651c1.0816.9896 2.45087 1.67996 3.88917 1.95611-.20718-.64436-.41428-1.30023-.5178-1.95611h.73642c1.15064 0 2.08266-.93202 2.08266-2.08266v-6.48956c0-1.15064-.93202-2.07121-2.08266-2.07121h-13.0943c-1.15064 0-2.08266.92057-2.08266 2.07121z" fill="#4224ff" fill-opacity="1" data-original-color="#f72f43ff" stroke="none" stroke-opacity="1"/></g><g><path d="m3.47504 11.59466v.82843c0 1.15064.93202 2.08266 2.08266 2.08266h8.98651c1.0816.9896 2.45087 1.67996 3.88917 1.95611-.20718-.64436-.41428-1.30023-.5178-1.95611h.73642c1.15064 0 2.08266-.93202 2.08266-2.08266v-6.48957c0-1.15064-.93202-2.07121-2.08266-2.07121h-.96657c1.11609 1.749 1.24271 4.09628.24166 5.91431-1.12768 2.04817-3.47496 3.2333-5.79928 3.45192-2.33576.23014-4.6716-.39118-6.85778-1.21968-.5178-.19559-1.0356-.4027-1.58789-.42573-.06902.00001-.13806.00001-.2071.01153z" fill="#4224ff" fill-opacity="1" data-original-color="#e2212eff" stroke="none" stroke-opacity="1"/></g><g><path d="m5.27 5.83h13.831v.771h-13.831z" fill="#ffffff" fill-opacity="1" data-original-color="#000000ff" stroke="none" stroke-opacity="1"/></g><g><path d="m5.27 8.315h13.831v.759h-13.831z" fill="#ffffff" fill-opacity="1" data-original-color="#000000ff" stroke="none" stroke-opacity="1"/></g><g><path d="m6.029 10.835h12.312v.679h-12.312z" fill="#ffffff" fill-opacity="1" data-original-color="#000000ff" stroke="none" stroke-opacity="1"/></g><g><path d="m5.27 6.072h13.831v.529h-13.831z" fill="#19345d" fill-opacity="1" data-original-color="#19345dff" stroke="none" stroke-opacity="1"/></g><g><path d="m5.27 8.545h13.831v.529h-13.831z" fill="#19345d" fill-opacity="1" data-original-color="#19345dff" stroke="none" stroke-opacity="1"/></g><g><path d="m6.029 11.065h12.312v.449h-12.312z" fill="#19345d" fill-opacity="1" data-original-color="#19345dff" stroke="none" stroke-opacity="1"/></g><g><path d="m45.5853 14.27446c0 2.36281-1.90292 4.26567-4.2567 4.26567-2.32885 0-4.26567-1.89024-4.26567-4.26567 0-3.86547 4.73642-5.69713 7.35897-2.92194.72151.75751 1.1634 1.78561 1.1634 2.92194z" fill="#ffffff" fill-opacity="1" data-original-color="#000000ff" stroke="none" stroke-opacity="1"/></g><g><path d="m45.5853 14.27446c0 .75751-.19843 1.47-.54114 2.08324-.72146 1.30768-2.1193 2.18243-3.71556 2.18243-2.30945 0-4.12141-1.78268-4.12141-4.1214 0-1.34373.61324-2.53416 1.57822-3.30973 1.641-1.33706 4.07469-1.26322 5.63649.24351.72151.75752 1.1634 1.78562 1.1634 2.92195z" fill="#f2f8fd" fill-opacity="1" data-original-color="#f2f8fdff" stroke="none" stroke-opacity="1"/></g><g><path d="m45.04416 16.3577c-.72146 1.30768-2.1193 2.18243-3.71556 2.18243-2.30945 0-4.12141-1.78268-4.12141-4.1214 0-1.34373.61324-2.53416 1.57822-3.30973-.69761 3.14008 2.40182 6.13873 6.25875 5.2487z" fill="#d0dcee" fill-opacity="1" data-original-color="#d0dceeff" stroke="none" stroke-opacity="1"/></g><g><g><path d="m44.43995 14.67179c-.10019.0478-4.61877 2.20372-4.33119 2.0665-.25481.12034-.55203-.07784-.53786-.36094l.19109-4.2321c.00704-.27602.30431-.44586.55199-.31848.10185.05328 4.41547 2.30964 4.14009 2.16559.27602.14865.26894.54496-.01412.67943z" fill="#4224ff" fill-opacity="1" data-original-color="#f72f43ff" stroke="none" stroke-opacity="1"/></g><g><path d="m43.06699 15.32996-2.95823 1.40834c-.25481.12034-.55203-.07784-.53786-.36094l.19109-4.2321c.00704-.27602.30431-.44586.55199-.31848l.5237.27602c-.29579.47785-.50168 1.37133-.26185 2.01696.28904.8112 1.2784 1.43302 2.49116 1.2102z" fill="#4224ff" fill-opacity="1" data-original-color="#e2212eff" stroke="none" stroke-opacity="1"/></g></g><g><path d="m28.83338 34.27283c-.43024-1.8955-2.9372-3.12299-2.12954-.59279.59846 1.87482 2.47298 2.10588 2.12954.59279z" fill="#d0dcee" fill-opacity="1" data-original-color="#d0dceeff" stroke="none" stroke-opacity="1"/></g><g><path d="m27.99619 29.81514c-.24151-1.06402-1.65428-1.75992-1.19904-.33377.33696 1.05562 1.39241 1.18572 1.19904.33377z" fill="#d0dcee" fill-opacity="1" data-original-color="#d0dceeff" stroke="none" stroke-opacity="1"/></g><g><path d="m49.16649 15.18004c1.0211.0525.57644-1.66682-.54444-2.31349-.53055-.30609-.63066.51831-.66362.88753-.06031.6755.66629 1.39811 1.20806 1.42596z" fill="#4224ff" fill-opacity="1" data-original-color="#ff9f1cff" stroke="none" stroke-opacity="1"/></g><g><path d="m48.84438 11.3046c.09225-.10412.08776-.26174.05667-.39732-.08204-.35778-.31828-.67743-.63622-.86087-.31123-.17956-.36996.30406-.3893.52065-.04626.51828.6763 1.0677.96885.73754z" fill="#4224ff" fill-opacity="1" data-original-color="#ff9f1cff" stroke="none" stroke-opacity="1"/></g><g><path d="m16.51546 42.02388c.17765-.14861.12679-.43368.02989-.64405-.43604-.94672-1.46532-1.39761-1.746-1.32762-.46032.11479-.1641.81176.0251 1.03424.36941.4344 1.28755 1.27495 1.69101.93743z" fill="#11007a" fill-opacity="1" data-original-color="#018e9aff" stroke="none" stroke-opacity="1"/></g><g><path d="m15.13593 38.04692c-.17356-.37682-.51288-.67361-.90946-.79544-.38371-.11788-.37929.33714-.14198.61618.75842.89183 1.28539.6872 1.05144.17926z" fill="#11007a" fill-opacity="1" data-original-color="#018e9aff" stroke="none" stroke-opacity="1"/></g><g><path d="m31.41899 17.57156v-7.40918c0-.06596.09961-.06596.09961 0v7.40918c0 .06595-.09961.06595-.09961 0z" fill="#ffffff" fill-opacity="1" data-original-color="#000000ff" stroke="none" stroke-opacity="1"/></g><g><path d="m51.42973 18.59011s0 0-.00049 0c-.10117 0-.02818.2852-.00391-8.04492 0-.02734.02246-.0498.0498-.0498h.00049c.02734 0 .0498.02246.04932.0498-.07041 8.34687.00601 8.04492-.09521 8.04492z" fill="#ffffff" fill-opacity="1" data-original-color="#000000ff" stroke="none" stroke-opacity="1"/></g><g><path d="m38.82768 39.92898c1.54326-3.55936 1.845-7.87332.52344-11.59473-.05522-.15415.17772-.24247.23535-.08398 1.36327 3.83849 1.01305 8.21815-.5293 11.77832-.06672.15251-.29456.05146-.22949-.09961z" fill="#ffffff" fill-opacity="1" data-original-color="#000000ff" stroke="none" stroke-opacity="1"/></g><g><path d="m16.55229 50.48465c-4.9248-2.06152-8.57715-5.3457-10.56201-9.49805-.07105-.14909.15455-.25648.22559-.10742 1.95801 4.0957 5.56592 7.33691 10.43311 9.375.15401.06397.05286.2959-.09669.23047z" fill="#ffffff" fill-opacity="1" data-original-color="#000000ff" stroke="none" stroke-opacity="1"/></g><g><path d="m18.14165 3.98758h-11.19239c-.06885 0-.125-.05566-.125-.125s.05615-.125.125-.125h11.19238c.06885 0 .125.05566.125.125s-.05615.125-.12499.125z" fill="#ffffff" fill-opacity="1" data-original-color="#000000ff" stroke="none" stroke-opacity="1"/></g></g></g></svg>