<svg id="Layer_1" enable-background="new 0 0 66 66" viewBox="0 0 66 66" xmlns="http://www.w3.org/2000/svg" width="300" height="300" version="1.1" xmlns:xlink="http://www.w3.org/1999/xlink" xmlns:svgjs="http://svgjs.dev/svgjs"><g width="100%" height="100%" transform="matrix(1,0,0,1,0,0)"><g><g><path d="m3.2 47.46c-.02 0-.03 0-.05-.01-.13-.03-.21-.16-.19-.29.23-1.05 1.26-2.45 3.05-4.16 4.6-4.37 13.5-10.15 23.81-15.48 9.79-5.05 19.36-8.89 25.61-10.27.14-.03.26.05.29.19.03.13-.05.26-.19.29-6.21 1.37-15.74 5.19-25.49 10.23-10.28 5.3-19.13 11.06-23.7 15.4-1.7 1.62-2.71 2.97-2.91 3.91-.02.11-.12.19-.23.19z" fill="#000000" fill-opacity="1" data-original-color="#000000ff" stroke="none" stroke-opacity="1"/></g><g><g><path d="m9.97 47.04c-2.1 1.38-4.83 1.08-6.58-.59-.29-.27-.55-.58-.78-.93-1.61-2.44-.92-5.73 1.52-7.35 1.61-1.05 3.58-1.12 5.2-.35.85.39 1.6 1.03 2.16 1.87 1.61 2.45.93 5.74-1.52 7.35z" fill="#4224ff" fill-opacity="1" data-original-color="#ff7a43ff" stroke="none" stroke-opacity="1"/></g><g><path d="m9.97 47.04c-2.1 1.38-4.83 1.08-6.58-.59.43.16.88.3 1.33.33.59.03 1.23-.18 1.58-.66.07-.1.13-.21.19-.33v-.01c.17-.37.28-.77.6-1 .09-.07.2-.11.31-.14.5-.15 1.13-.01 1.52-.37.03-.03.05-.05.08-.09.19-.25.22-.59.15-.93-.02-.13-.06-.25-.11-.37-.04-.11-.1-.22-.15-.33-.15-.31-.3-.61-.35-.94-.01-.03-.01-.08-.01-.11-.05-.75.51-1.4.74-2.12.16-.49.16-1.03.06-1.55.85.39 1.6 1.03 2.16 1.87 1.61 2.44.93 5.73-1.52 7.34z" fill="#220f94" fill-opacity="1" data-original-color="#f26636ff" stroke="none" stroke-opacity="1"/></g><g><g><path d="m10.44 42.04c-.41-.64-1.26-.83-1.9-.43-.01 0-.03.01-.04.02-.65.43-.83 1.31-.4 1.95.21.32.54.53.9.6.35.07.72.01 1.04-.2.65-.43.82-1.3.4-1.94zm-.91 1.16c-.11.07-.25.09-.38.05-.11-.02-.21-.08-.27-.19-.11-.16-.1-.36.01-.52.03-.05.08-.1.13-.13.21-.14.5-.08.64.13.15.23.09.52-.13.66zm-1.91-3.74c-.08-.12-.21-.2-.36-.21-.1 0-.21.02-.28.08-.12.08-.2.21-.21.36l-.35 5.81c-.01.11.02.2.07.28v.01c.08.12.21.2.36.21.11.01.21-.02.28-.07.12-.08.2-.21.22-.36l.05-.92.3-4.89c.01-.13-.02-.22-.08-.3zm-1.64 2.16c-.42-.64-1.28-.82-1.93-.4-.64.42-.82 1.29-.4 1.93s1.29.82 1.93.4c.65-.42.83-1.29.4-1.93zm-.91 1.16c-.22.14-.51.09-.65-.13-.14-.21-.08-.5.14-.64.21-.14.5-.08.64.14.14.2.09.49-.13.63z" fill="#ffffff" fill-opacity="1" data-original-color="#ffffffff" stroke="none" stroke-opacity="1"/></g></g></g><g><path d="m39.83 55.3c-10.28 3.31-21.2-.87-26.81-9.51-.18-.28-.36-.56-.53-.85-.88-1.47-1.6-3.06-2.14-4.75-1.43-4.44-1.47-9-.35-13.19 1.46-5.48 4.88-10.34 9.72-13.54 1.73-1.15 3.65-2.08 5.74-2.75 1.54-.49 3.09-.83 4.64-1 6.26-.69 12.42 1.2 17.18 4.99.3.23.59.48.87.74 3.05 2.69 5.45 6.23 6.79 10.39.42 1.32.73 2.65.91 3.98 1.54 11.05-5.03 21.95-16.02 25.49z" fill="#5034ff" fill-opacity="1" data-original-color="#509dffff" stroke="none" stroke-opacity="1"/></g><g><path d="m30.78 11.49c.01.43-.18.88-.55 1.1-.44.26-1 .12-1.5.01s-1.1-.16-1.47.2c-.42.42-.38 1.26-.94 1.47-.64.24-1.23-.66-1.91-.59-.48.05-.76.55-.93 1.01-.17.45-.36.97-.81 1.15-.5.2-1.04-.13-1.44-.49-.61-.54-1.11-1.19-1.5-1.89 1.73-1.15 3.65-2.08 5.74-2.75 1.54-.49 3.09-.83 4.64-1 .12.18.21.37.31.56.19.38.35.79.36 1.22z" fill="#2b13c4" fill-opacity="1" data-original-color="#308cefff" stroke="none" stroke-opacity="1"/></g><g><path d="m22.19 19.47c-.16 0-.32-.01-.48-.04-1.07-.18-2.08-.93-2.78-2.05-.53-.83-.84-1.76-1.1-2.64-.04-.13.03-.27.16-.3.13-.04.27.04.3.16.25.84.55 1.73 1.05 2.52.63 1 1.52 1.66 2.45 1.82 1.05.18 2.16-.39 2.47-1.27.03-.09.06-.19.09-.29.11-.38.23-.81.63-1.03.54-.28 1.05.04 1.5.33.37.24.71.46 1.02.34.3-.11.37-.44.45-.96.07-.41.15-.88.45-1.21.44-.48 1.11-.45 1.69-.42.21.01.42.02.62.01.99-.06 1.9-.9 2.17-2 .26-1.07-.06-2.09-.38-2.76-.06-.12-.01-.27.11-.33s.27-.01.33.11c.35.74.71 1.88.41 3.09-.32 1.3-1.41 2.3-2.61 2.37-.22.01-.45 0-.68-.01-.53-.02-1.02-.05-1.31.27-.2.23-.27.6-.33.96-.09.53-.19 1.12-.76 1.34-.53.2-1.02-.11-1.45-.39-.45-.29-.75-.45-1.01-.31-.21.12-.3.41-.38.73-.03.11-.06.22-.1.32-.35.98-1.41 1.64-2.53 1.64z" fill="#2b13c4" fill-opacity="1" data-original-color="#308cefff" stroke="none" stroke-opacity="1"/></g><g><path d="m39.99 37.54c-.19.27-.35.57-.5.85-.35.61-.91 1.26-1.61 1.19.07-.46.24-.89.57-1.25.4-.46.94-.68 1.54-.79z" fill="#2b13c4" fill-opacity="1" data-original-color="#308cefff" stroke="none" stroke-opacity="1"/></g><g><path d="m39.83 55.3c-10.28 3.31-21.2-.87-26.81-9.51-.18-.28-.36-.56-.53-.85 1.62 1.51 3.34 2.95 5.39 3.77 2.39.96 5.39.87 7.27-.89.85-.8 1.45-1.91 2.45-2.49-.15.2-.23.44-.22.69.18 2.65 5.23.49 4.49 3.65-.08.38.02.9.4.94.27.04.5-.2.6-.44.09-.25.1-.53.16-.79.42-1.63 2.01 1.13 2.81 1.16 1.28.05 1.99-1.91 3.27-1.81 1.03.07 1.69 1.49 2.72 1.34.51-.08.87-.53 1.11-1 .47-.94.62-2 .94-3 .23-.72.57-1.41.9-2.1.05-.1.1-.21.14-.31.38-.79.76-1.59.93-2.44.17-.86.11-1.79-.35-2.53-.47-.75-1.25-1.2-2.1-1.5.38-.11.72-.27 1.03-.53 1.21-1.02 1.02-2.91.68-4.46-.03-.13-.06-.26-.08-.4.21.04.44.03.67-.05 1.13-.38 1.1-2.05 1.94-2.91 1-1.04 2.76-.51 4.02.19 1.28.69 2.81 1.51 4.08.83.04-.02.07-.03.1-.06 1.55 11.06-5.02 21.96-16.01 25.5z" fill="#2b13c4" fill-opacity="1" data-original-color="#308cefff" stroke="none" stroke-opacity="1"/></g><g><path d="m55.86 29.8c-.03.03-.07.04-.1.06-1.28.68-2.81-.14-4.08-.83-1.26-.7-3.02-1.23-4.02-.19-.84.86-.81 2.53-1.94 2.91-.23.08-.46.08-.67.05-.92-.18-1.76-1.23-2.79-1.43-1.13-.22-2.16.66-3.01 1.45s-1.97 1.61-3.07 1.22c-.93-.31-1.39-1.37-1.46-2.34-.06-.98.17-1.96.13-2.94-.05-.98-.48-2.04-1.39-2.41-1.19-.48-2.45.48-3.34 1.41s-1.95 2.01-3.22 1.8c-1.24-.19-1.99-1.65-1.7-2.87.3-1.21 1.39-2.1 2.57-2.51 1.24-.41 6.4.51 6.56-1.15.08-.93-1.11-1.54-1.2-2.48-.07-.67.48-1.28 1.11-1.5.63-.23 1.32-.18 1.99-.11.87.08 1.08-.1.93-1.04-.2-.9-2.19-3.07-.56-3.81 1.09-.49 2.03 1.25 3.22 1.15 1.13-.09 1.63-1.78 2.77-1.82 1.41-.05 1.62 2.29 2.95 2.76.62.22 1.24-.05 1.75-.49.3.23.59.48.87.74.19.17.38.34.57.51.18.18.37.35.55.53.54.54 1.05 1.11 1.54 1.71.16.2.33.4.48.61.16.2.31.41.46.63.23.32.45.64.66.98.12.2.25.4.38.61.1.18.2.35.3.53.1.17.19.34.28.51.16.29.31.59.45.9.08.17.16.35.24.52.03.07.05.13.08.2.08.2.17.4.25.61.2.5.38 1.01.55 1.53.42 1.33.72 2.67.91 3.99z" fill="#110945" fill-opacity="1" data-original-color="#d3dc5eff" stroke="none" stroke-opacity="1"/></g><g><path d="m55.86 29.8c-.03.03-.07.04-.1.06-1.28.68-2.81-.14-4.08-.83-1.26-.7-3.02-1.23-4.02-.19-.84.86-.81 2.53-1.94 2.91-.23.08-.46.08-.67.05-.29-1.46-.47-3.09.53-4.13.94-.98 2.54-1.01 3.54-1.93 1.28-1.17 1.04-3.2.64-4.88-.44-1.83-.97-3.64-1.59-5.42.19.17.38.34.57.51.18.18.37.35.55.53.54.54 1.05 1.11 1.54 1.71.16.2.33.4.48.61.16.2.31.41.46.63.23.32.45.64.66.98.12.2.25.4.38.61.1.18.2.35.3.53.1.17.19.34.28.51.16.29.31.59.45.9.08.17.16.35.24.52.03.07.05.13.08.2.08.2.17.4.25.61.2.5.38 1.01.55 1.53.41 1.32.71 2.66.9 3.98z" fill="#5438fa" fill-opacity="1" data-original-color="#c6c945ff" stroke="none" stroke-opacity="1"/></g><g><path d="m45.86 41.23c-.17.85-.55 1.65-.93 2.44-.05.1-.1.2-.14.31-.33.69-.66 1.38-.9 2.1-.33 1-.48 2.06-.94 3-.23.46-.6.92-1.11 1-1.03.15-1.69-1.27-2.72-1.34-1.28-.1-1.99 1.86-3.27 1.81-.81-.03-2.4-2.79-2.81-1.16-.07.26-.07.54-.16.79-.1.25-.33.48-.6.44-.38-.05-.49-.57-.4-.94.74-3.16-4.31-1-4.49-3.65-.01-.25.07-.49.22-.69.1-.15.23-.27.39-.36.36-.22.79-.29 1.22-.31.4-.02.87-.01 1.12-.33.34-.4.07-1.01-.27-1.42-.01-.01-.02-.03-.03-.04-.35-.41-.78-.88-.68-1.41.09-.46.57-.75 1.03-.77.46-.03.91.14 1.34.31.35.14 1.1.61 1.45.48.25-.09.76-.97.68-1.22.1-.6-.03-1.22.01-1.83.05-.61.37-1.28.97-1.39.69-.12 1.24.54 1.58 1.15.35.61.76 1.32 1.45 1.39h.01c.7.07 1.26-.57 1.61-1.19.16-.28.31-.58.5-.85.21-.33.48-.6.84-.74.51-.2 1.08-.07 1.6.08.33.09.66.19.98.31.85.31 1.63.76 2.1 1.5.46.73.51 1.67.35 2.53z" fill="#110945" fill-opacity="1" data-original-color="#d3dc5eff" stroke="none" stroke-opacity="1"/></g><g><path d="m45.86 41.23c-.17.85-.55 1.65-.93 2.44-.05.1-.1.2-.14.31-.33.69-.66 1.38-.9 2.1-.33 1-.48 2.06-.94 3-.23.46-.6.92-1.11 1-1.03.15-1.69-1.27-2.72-1.34-1.28-.1-1.99 1.86-3.27 1.81-.81-.03-2.4-2.79-2.81-1.16-.07.26-.07.54-.16.79-.1.25-.33.48-.6.44-.38-.05-.49-.57-.4-.94.74-3.16-4.31-1-4.49-3.65-.01-.25.07-.49.22-.69.05-.03.09-.05.14-.08 1.55-.81 3.41-.08 5.08.43s3.85.64 4.81-.83c.96-1.48-.01-3.62.25-5.28.7.07 1.26-.57 1.61-1.19.16-.28.31-.58.5-.85 1.08-.21 2.36-.06 3.42-.35.85.31 1.63.76 2.1 1.5.45.74.5 1.68.34 2.54z" fill="#5438fa" fill-opacity="1" data-original-color="#c6c945ff" stroke="none" stroke-opacity="1"/></g><g><path d="m19.45 20.74c-.15.63-.96 1.06-1.52.72-.15.23-.05.56.14.76s.45.32.69.47c.6.38 1.04.99 1.24 1.67.17.58-.2 1.2-.79 1.32-1.62.34-3.03 1.66-3.4 3.29-.16.74-.12 1.54.23 2.22 1.15 2.18 4.86 2.01 5.58 4.54.15.54-.01 1.15-.49 1.45-1.01.63-2.02-.95-2.87-.41-.84.52.1 1.99-.5 2.77-.37.5-1.15.43-1.74.22-.59-.2-1.24-.48-1.82-.22-.66.29-.86 1.17-.73 1.88.12.72.45 1.4.5 2.13.06.84-.32 1.7-.97 2.24-1.11-1.7-2.02-3.58-2.67-5.6-1.41-4.44-1.44-9-.32-13.19.58-.3 1.19-.55 1.81-.74.58-.17 1.2-.32 1.64-.74.87-.85.55-2.3.75-3.51.23-1.33 1.23-2.5 2.5-2.92.62-.21 1.33-.24 1.91.05s.99.97.83 1.6z" fill="#110945" fill-opacity="1" data-original-color="#d3dc5eff" stroke="none" stroke-opacity="1"/></g><g><path d="m32.67 56.67c-7.86 0-15.42-3.92-19.85-10.75-.18-.28-.36-.57-.53-.86-.88-1.46-1.61-3.08-2.16-4.79-1.4-4.34-1.52-8.95-.35-13.33 2.08-7.83 7.92-13.98 15.62-16.46 7.57-2.44 15.81-.93 22.04 4.03.3.24.59.49.88.74.1.09.11.24.02.34s-.24.11-.34.02c-.28-.25-.57-.5-.86-.73-6.11-4.87-14.18-6.34-21.59-3.95-7.54 2.43-13.26 8.45-15.3 16.12-1.15 4.29-1.03 8.81.34 13.06.54 1.68 1.26 3.26 2.12 4.7.17.29.34.57.52.85 5.67 8.74 16.59 12.61 26.53 9.41 4.79-1.54 8.85-4.52 11.76-8.6.08-.11.23-.14.34-.06s.14.23.06.34c-2.97 4.17-7.12 7.21-12.01 8.78-2.39.77-4.83 1.14-7.24 1.14z" fill="#000000" fill-opacity="1" data-original-color="#000000ff" stroke="none" stroke-opacity="1"/></g><g><path d="m5.8 49.29c-1.34 0-2.35-.29-2.73-1.02-.16-.31-.2-.68-.1-1.11.03-.13.16-.21.29-.19.13.03.22.16.19.29-.07.31-.05.57.06.78.65 1.25 4.47.93 10.23-.84 6.05-1.87 13.69-5.12 21.52-9.16 17.44-9 27.81-17.65 26.55-20.08-.28-.54-1.47-1.29-6.26-.22-.13.03-.26-.05-.29-.19-.03-.13.05-.26.19-.29 3.9-.86 6.19-.7 6.8.48 1.75 3.42-12.23 13.23-26.78 20.74-7.86 4.05-15.53 7.32-21.6 9.19-2.72.84-5.86 1.62-8.07 1.62z" fill="#000000" fill-opacity="1" data-original-color="#000000ff" stroke="none" stroke-opacity="1"/></g><g><g><path d="m63.94 23.04c1.12 3.47-.79 7.19-4.26 8.31-2.87.93-5.92-.22-7.51-2.62-.34-.49-.61-1.05-.8-1.64-1.12-3.47.79-7.19 4.26-8.31 2.18-.7 4.46-.21 6.14 1.11.98.78 1.75 1.86 2.17 3.15z" fill="#4224ff" fill-opacity="1" data-original-color="#fe515eff" stroke="none" stroke-opacity="1"/></g><g><path d="m63.94 23.04c1.12 3.47-.79 7.19-4.26 8.31-2.87.93-5.92-.22-7.51-2.62.33.23.69.43 1.08.55.84.25 1.87.06 2.34-.66.36-.56.39-1.38.85-1.79.01-.01.01-.01.01-.01.07-.06.15-.1.23-.15.32-.15.68-.08 1.03.04.14.04.27.08.4.13.21.07.44.13.67.15.27 0 .54-.06.73-.27.12-.13.17-.29.2-.46.03-.15.03-.31.02-.48-.02-.54-.11-1.1.32-1.36.13-.08.28-.11.44-.1.02 0 .05 0 .08.01.28.01.59.09.87.02.4-.09.67-.48.75-.88.09-.4.03-.81-.05-1.22-.12-.79-.25-1.58-.38-2.36.99.78 1.76 1.86 2.18 3.15z" fill="#180b6e" fill-opacity="1" data-original-color="#f83b4dff" stroke="none" stroke-opacity="1"/></g><g><g><path d="m60.2 24.41c-.02-.01-.05-.01-.07-.01-.22-.04-.45-.02-.68.05-.79.26-1.24 1.13-.98 1.92.04.13.1.25.17.36.37.56 1.08.83 1.74.62.79-.26 1.24-1.11.98-1.91-.17-.54-.63-.93-1.16-1.03zm-.12 1.98c-.25.08-.53-.05-.62-.29l-.01-.04c-.04-.13-.03-.27.03-.38s.16-.21.29-.25c.27-.09.55.07.64.33.08.26-.06.55-.33.63zm-1.23-4.78c-.1-.05-.22-.04-.32-.01-.15.05-.27.16-.32.32l-1.61 4.68v.01l-.45 1.3c-.04.11-.04.22-.01.32.05.15.16.27.31.32.11.04.23.03.32 0 .15-.05.27-.16.33-.31l.6-1.74 1.46-4.25c.04-.11.03-.22 0-.32-.05-.16-.16-.27-.31-.32zm-3.95 1.12c-.8.26-1.24 1.12-.98 1.91.26.8 1.11 1.24 1.91.98.79-.26 1.24-1.11.98-1.91-.25-.79-1.11-1.23-1.91-.98zm.62 1.93c-.27.09-.55-.06-.64-.33-.08-.26.06-.55.33-.64s.55.07.64.33c.09.27-.06.55-.33.64z" fill="#ffffff" fill-opacity="1" data-original-color="#ffffffff" stroke="none" stroke-opacity="1"/></g></g></g><g><path d="m38.67 44.56c-.46 0-.87.22-1.17.58s-.49.84-.49 1.38c0-1.08-.74-1.96-1.65-1.96.46 0 .87-.22 1.17-.57.3-.36.48-.84.48-1.38 0 .54.19 1.03.49 1.38s.71.57 1.17.57z" fill="#ffffff" fill-opacity="1" data-original-color="#ffffffff" stroke="none" stroke-opacity="1"/></g><g><path d="m38.67 16.5c-.46 0-.87.22-1.17.58s-.49.84-.49 1.38c0-1.08-.74-1.96-1.65-1.96.46 0 .87-.22 1.17-.57.3-.36.48-.84.48-1.38 0 .54.19 1.03.49 1.38s.71.57 1.17.57z" fill="#ffffff" fill-opacity="1" data-original-color="#ffffffff" stroke="none" stroke-opacity="1"/></g><g><path d="m36.45 46.4c-.24 0-.46.12-.61.3-.16.19-.25.44-.25.72 0-.57-.39-1.03-.86-1.03.24 0 .45-.12.61-.3.16-.19.25-.44.25-.72 0 .28.1.54.25.72.16.2.37.31.61.31z" fill="#ffffff" fill-opacity="1" data-original-color="#ffffffff" stroke="none" stroke-opacity="1"/></g><g><g><path d="m11.64 34.37c-.46.05-.97-1.25-.83-2.9.13-1.65.86-2.85 1.3-2.73.46.13.51 1.39.39 2.87-.13 1.48-.39 2.72-.86 2.76z" fill="#ffffff" fill-opacity="1" data-original-color="#ffffffff" stroke="none" stroke-opacity="1"/></g><g><path d="m12 36.86c-.2.05-.45-.31-.53-.8s.04-.91.24-.93.41.34.49.81.01.88-.2.92z" fill="#ffffff" fill-opacity="1" data-original-color="#ffffffff" stroke="none" stroke-opacity="1"/></g></g><g><g><path d="m57.98 19.79c.03.47-.83.92-1.83 1.36-1 .42-1.9.76-2.23.42-.16-.17-.11-.51.16-.9.26-.39.76-.8 1.4-1.08 1.29-.56 2.48-.27 2.5.2z" fill="#ffffff" fill-opacity="1" data-original-color="#ffffffff" stroke="none" stroke-opacity="1"/></g><g><path d="m59.92 20.09c-.11.17-.41.18-.73.11s-.61-.24-.61-.44.34-.38.78-.28c.43.1.67.44.56.61z" fill="#ffffff" fill-opacity="1" data-original-color="#ffffffff" stroke="none" stroke-opacity="1"/></g></g></g></g></svg>